<?xml version="1.0" encoding="utf-8"?>
<!-- Generator: Adobe Illustrator 26.3.1, SVG Export Plug-In . SVG Version: 6.00 Build 0)  -->
<svg version="1.1" id="Layer_1" xmlns="http://www.w3.org/2000/svg" xmlns:xlink="http://www.w3.org/1999/xlink" x="0px" y="0px"
	 viewBox="0 0 52.4 26.6" style="enable-background:new 0 0 52.4 26.6;" xml:space="preserve">
<style type="text/css">
	.st0{fill:#FFF5F8;}
	.st1{fill:#231F20;}
	.st2{fill:#F44E7E;}
	.st3{enable-background:new    ;}
	.st4{fill:none;stroke:#000000;stroke-width:0.5;stroke-miterlimit:10;}
</style>
<g>
	<g>
		<g>
			<g>
				<path class="st0" d="M19.6,13.4c0.1-0.4,0.1-0.8,0.1-1.2c0-3.8-3.1-6.9-6.9-6.9s-6.9,3.1-6.9,6.9c0,0.8,0.1,1.6,0.4,2.3
					c0,0,0,3.2,0,4.9s0.4,2.4,1.3,2.5s1.2-2.5,1.4-2.4c0.2,0.1,5.4,0.6,7.7-0.1c0,0,0.1,2.5,1.6,2.2C19.8,21.4,19.6,13.4,19.6,13.4z
					"/>
				<path class="st1" d="M7.7,22.3c0,0-0.1,0-0.1,0C6.2,22.1,6,20.8,6,19.5c0-1.5,0-4.4,0-4.8c-0.3-0.8-0.4-1.6-0.4-2.4
					c0-4,3.2-7.2,7.2-7.2c4,0,7.2,3.2,7.2,7.2c0,0.4,0,0.8-0.1,1.2c0,0.3,0.1,2.2-0.1,4.1c-0.2,3.8-0.9,4.5-1.4,4.6
					c-0.4,0.1-0.8,0-1.1-0.2c-0.6-0.5-0.8-1.4-0.9-1.9c-2.2,0.5-6.3,0.1-7.3,0c0,0.1-0.1,0.3-0.1,0.4C8.8,21.1,8.5,22.3,7.7,22.3z
					 M12.8,5.7c-3.6,0-6.6,2.9-6.6,6.6c0,0.8,0.1,1.5,0.4,2.2l0,0v0.1c0,0,0,3.2,0,4.9c0,1.7,0.5,2.1,1.1,2.2c0.3,0,0.7-1.1,0.8-1.5
					c0.2-0.6,0.3-1,0.6-0.9c0.3,0.1,5.3,0.6,7.5-0.1l0.4-0.1l0,0.4c0,0.4,0.2,1.4,0.7,1.8c0.2,0.1,0.3,0.2,0.6,0.1
					c0.1,0,0.7-0.3,0.9-4c0.1-2,0.1-4,0.1-4v0l0,0c0.1-0.4,0.1-0.7,0.1-1.1C19.4,8.6,16.4,5.7,12.8,5.7z"/>
			</g>
			<g>
				<path class="st2" d="M17.8,7.4c0.8,0.8,1.3,1.7,1.7,2.8c0,0,1.9,0.3,2.8-0.1c0.9-0.5,0.6-1.4-0.2-1.2c-0.9,0.3-1.8,0.2-1.8,0.1
					c-0.1-0.1,2.6-1.4,2.9-2.7c0.3-1.3-0.6-1.5-1.8-0.4c-1.1,1.1-2,1.3-2.1,1.4c0.4-0.4,0.8-1.8,0.5-2.3c-0.3-0.5-0.9-0.2-1.1,0.7
					C18.6,6.6,17.8,7.4,17.8,7.4z"/>
				<path class="st1" d="M20.9,10.6c-0.7,0-1.3-0.1-1.5-0.1c-0.1,0-0.2-0.1-0.2-0.2c-0.3-1-0.9-1.9-1.6-2.7c-0.1-0.1-0.1-0.3,0-0.4
					l0,0c0,0,0.7-0.8,0.9-1.5c0.1-0.7,0.5-1.1,0.9-1.2c0.3,0,0.6,0.1,0.7,0.4c0.3,0.4,0.2,1.2,0,1.8c0.3-0.2,0.7-0.5,1.1-0.9
					c0.8-0.7,1.5-1,2-0.7c0.2,0.1,0.6,0.5,0.3,1.4c-0.3,1-1.6,1.8-2.4,2.4c0.3,0,0.6-0.1,0.9-0.2c0.6-0.2,1,0.1,1.1,0.4
					c0.2,0.4,0,1-0.6,1.3C22.1,10.6,21.5,10.6,20.9,10.6z M19.8,9.9c0.6,0.1,1.8,0.2,2.4-0.1c0.3-0.2,0.4-0.4,0.4-0.5
					c0-0.1-0.2-0.1-0.4,0c-0.6,0.2-2,0.4-2.2-0.1c-0.2-0.3,0.1-0.4,0.6-0.8C21.3,8,22.7,7,22.9,6.3c0.1-0.3,0.1-0.6,0-0.7
					c-0.1-0.1-0.6,0-1.3,0.6c-1.2,1.2-2.1,1.4-2.2,1.4c-0.1,0-0.3,0-0.3-0.1c-0.1-0.1,0-0.3,0-0.4c0.4-0.3,0.7-1.6,0.5-1.9
					c0,0-0.1-0.1-0.1-0.1c-0.1,0-0.3,0.2-0.4,0.7c-0.1,0.7-0.6,1.3-0.8,1.6C18.9,8.1,19.4,9,19.8,9.9z"/>
			</g>
			<g>
				<path class="st2" d="M7.8,7.4C7,8.2,6.4,9.1,6.1,10.2c0,0-1.9,0.3-2.8-0.1C2.4,9.6,2.7,8.7,3.5,8.9C4.4,9.2,5.3,9.1,5.4,9
					c0.1-0.1-2.6-1.4-2.9-2.7C2.1,5.1,3,4.8,4.2,6c1.1,1.1,2,1.3,2.1,1.4C5.9,6.9,5.4,5.6,5.8,5s0.9-0.2,1.1,0.7
					C7,6.6,7.8,7.4,7.8,7.4z"/>
				<path class="st1" d="M4.7,10.6c-0.5,0-1.1-0.1-1.5-0.3C2.5,10,2.3,9.4,2.5,9.1C2.6,8.7,3,8.5,3.6,8.6C4,8.7,4.3,8.8,4.6,8.8
					C3.7,8.2,2.4,7.4,2.1,6.4C1.9,5.5,2.3,5.2,2.4,5c0.5-0.3,1.2,0,2,0.7c0.4,0.4,0.8,0.7,1.1,0.9C5.3,6,5.2,5.3,5.5,4.8
					C5.7,4.6,6,4.4,6.3,4.5C6.7,4.5,7,5,7.2,5.6C7.3,6.4,8,7.2,8,7.2c0.1,0.1,0.1,0.3,0,0.4c-0.7,0.8-1.3,1.7-1.6,2.7
					c0,0.1-0.1,0.2-0.2,0.2C6,10.5,5.4,10.6,4.7,10.6z M3.2,9.2c-0.1,0-0.2,0-0.2,0.1c0,0.1,0,0.4,0.4,0.5C4,10.1,5.2,10,5.9,9.9
					C6.2,9,6.7,8.1,7.4,7.4c-0.2-0.3-0.7-1-0.8-1.6C6.5,5.3,6.2,5.1,6.2,5.1c0,0-0.1,0-0.1,0.1C5.8,5.6,6.1,6.8,6.5,7.1
					c0.1,0.1,0.1,0.3,0,0.4C6.5,7.6,6.3,7.7,6.2,7.6c0,0-1-0.3-2.2-1.4C3.4,5.6,2.9,5.5,2.8,5.6c-0.1,0.1-0.1,0.3,0,0.7
					C2.9,7,4.3,8,5,8.4c0.6,0.4,0.8,0.5,0.6,0.8C5.4,9.6,4,9.4,3.4,9.2C3.4,9.2,3.3,9.2,3.2,9.2z"/>
			</g>
			<g>
				<g>
					<path class="st1" d="M10.8,10.5c0-0.4-0.3-0.8-0.7-0.9c-0.4,0-0.8,0.3-0.9,0.7c0,0.4,0.3,0.8,0.7,0.9
						C10.4,11.3,10.7,11,10.8,10.5z"/>
					<path class="st1" d="M10,11.4C10,11.4,9.9,11.4,10,11.4c-0.5,0-0.9-0.5-0.9-0.9c0-0.5,0.5-0.8,0.9-0.8c0.5,0,0.8,0.5,0.8,0.9
						l0,0c0,0.2-0.1,0.4-0.3,0.6C10.4,11.3,10.2,11.4,10,11.4z M10,9.8c-0.4,0-0.7,0.3-0.7,0.7c0,0.4,0.3,0.8,0.7,0.8
						c0.2,0,0.4,0,0.5-0.2s0.2-0.3,0.3-0.5C10.7,10.1,10.4,9.8,10,9.8C10,9.8,10,9.8,10,9.8z"/>
				</g>
				<g>
					<path class="st1" d="M9.5,11.6c-0.5,0-0.9-0.2-0.9-0.2c-0.1,0-0.1-0.2-0.1-0.2C8.6,11,8.7,11,8.8,11l0,0c0,0,0.7,0.4,1.3,0
						c0.1-0.1,0.2,0,0.3,0c0.1,0.1,0,0.2,0,0.3C10.1,11.5,9.8,11.6,9.5,11.6z"/>
				</g>
			</g>
			<g>
				<g>
					<path class="st1" d="M14.9,10.5c0-0.4,0.3-0.8,0.7-0.9s0.8,0.3,0.9,0.7c0,0.4-0.3,0.8-0.7,0.9C15.3,11.3,14.9,11,14.9,10.5z"/>
					<path class="st1" d="M15.6,11.4c-0.2,0-0.4-0.1-0.6-0.2c-0.2-0.1-0.3-0.4-0.3-0.6c0-0.2,0.1-0.5,0.2-0.6
						c0.1-0.2,0.4-0.3,0.6-0.3c0.5,0,0.9,0.3,0.9,0.8S16.2,11.3,15.6,11.4C15.7,11.4,15.7,11.4,15.6,11.4z M15.7,9.8
						C15.6,9.8,15.6,9.8,15.7,9.8c-0.3,0-0.4,0.1-0.6,0.3c-0.1,0.1-0.2,0.3-0.2,0.5l0,0c0,0.2,0.1,0.4,0.3,0.5
						c0.1,0.1,0.3,0.2,0.5,0.2c0.4,0,0.7-0.4,0.7-0.8C16.4,10,16,9.8,15.7,9.8z"/>
				</g>
				<g>
					<path class="st1" d="M16.1,11.6c-0.3,0-0.6-0.1-0.8-0.3c-0.1-0.1-0.1-0.2,0-0.3s0.2-0.1,0.3,0c0.6,0.4,1.3,0,1.3,0
						c0.1,0,0.2,0,0.2,0.1c0,0.1,0,0.2-0.1,0.2C17,11.4,16.6,11.6,16.1,11.6z"/>
				</g>
			</g>
			<g>
				<path class="st1" d="M12.7,11.6c-0.4,0-0.7-0.1-0.9-0.3c-0.1-0.1-0.2-0.3-0.1-0.4c0.1-0.1,0.3-0.2,0.4-0.1c0,0,0.5,0.3,0.9,0
					c0.1-0.1,0.3-0.1,0.4,0c0.1,0.1,0.1,0.3,0,0.4C13.2,11.5,13,11.6,12.7,11.6z"/>
			</g>
			<g>
				<path class="st1" d="M9.1,19.9C9,19.9,9,19.9,9.1,19.9c-0.6-0.1-1.2-0.7-1.2-0.7c-0.1-0.1-0.1-0.3,0-0.4c0.1-0.1,0.3-0.1,0.4,0
					c0.1,0.1,0.5,0.5,0.8,0.5c0.2,0,0.3,0.2,0.3,0.3C9.3,19.8,9.2,19.9,9.1,19.9z"/>
			</g>
			<g>
				<path class="st1" d="M16.7,19.8c-0.1,0-0.3-0.1-0.3-0.2c0-0.2,0-0.3,0.2-0.4c0.6-0.2,1-0.5,1-0.5c0.1-0.1,0.3-0.1,0.4,0
					c0.1,0.1,0.1,0.3,0,0.4C18,19.2,17.6,19.6,16.7,19.8C16.8,19.8,16.8,19.8,16.7,19.8z"/>
			</g>
		</g>
	</g>
	<g>
		<g>
			<g class="st3">
				<path d="M24.9,15.2c0-0.6,0-1.7,0.2-2.9c-0.6,0.2-0.5,0.2-0.6,0.2c-0.1,0-0.2-0.1-0.3-0.2c0-0.1,0-0.3,0.2-0.3
					c0.3-0.1,0.5-0.2,0.8-0.3c0.3-1.9,0.9-6.3,2.7-5.7c1.1,0.4,1.1,2.4,1.1,4.8l0.6-0.1c0.1,0,0.3,0.1,0.3,0.2
					c0,0.1-0.1,0.3-0.2,0.3l-0.6,0.1c0,1.1,0,2.2,0,3.3c0,0.1-0.1,0.3-0.3,0.3c-0.1,0-0.3-0.1-0.3-0.3c0-1.1,0.1-2.2,0-3.2
					c-0.9,0.1-1.6,0.3-2.8,0.7c-0.2,1.3-0.2,2.4-0.2,3.1c0,0.1-0.1,0.3-0.3,0.3h0C25,15.5,24.9,15.4,24.9,15.2z M28.4,10.9
					c0-1.7-0.1-3-0.3-3.5c-0.1-0.4-0.3-0.7-0.5-0.8c-1.1-0.4-1.8,3.8-1.9,5C26.7,11.2,27.4,11,28.4,10.9z"/>
				<path d="M30.1,13.2c0.3-0.4,0.6-0.7,0.9-1c-0.2-0.5-0.4-1.1-0.5-1.8c0-0.1,0-0.3,0.2-0.3c0.1,0,0.3,0.1,0.3,0.2
					c0.1,0.6,0.3,1.1,0.4,1.5c0.4-0.4,0.8-1,1.2-1.9c0.1-0.1,0.2-0.2,0.4-0.1c0.1,0.1,0.2,0.2,0.1,0.4c-0.6,1.1-1,1.7-1.4,2.2
					c1.1,2.1,2.3,0,3.1-1c0.1-0.1,0.3-0.1,0.4,0c0.1,0.1,0.1,0.3,0,0.4c-0.2,0.2-0.6,0.9-1.2,1.4c-1.1,1-2.1,0.9-2.8-0.4
					c-0.3,0.2-0.5,0.5-0.7,0.8c-0.1,0.1-0.3,0.1-0.4,0C30.1,13.4,30,13.3,30.1,13.2z"/>
				<path d="M34.7,11.4c0.1-0.5,0.4-0.9,0.8-1.3c0.1-0.1,0.2-0.1,0.3,0c0.5-0.1,0.9,0.6,1,1.1c0.3,0.1,0.8,0.1,1.4,0
					c0.1,0,0.3,0,0.3,0.2c0,0.1,0,0.3-0.2,0.3c-0.5,0.1-1,0.2-1.5,0.1c0,0.4-0.1,0.8-0.3,1.2C35.8,14.5,34.1,13.4,34.7,11.4z
					 M36.5,11.7c-0.4-0.2-0.7-0.5-0.8-0.8c-1,1.3-0.2,3.3,0.6,1.9C36.4,12.4,36.5,12.1,36.5,11.7z"/>
				<path d="M38.9,6.2c0-0.1,0.2-0.2,0.3-0.2c0.1,0,0.2,0.2,0.2,0.3c-0.5,2.7-0.8,4.5-0.7,5.5c0,1.1,0.3,1.2,0.5,1.3
					c0.4,0.2,1.2-0.9,1.7-1.8c0.1-0.1,0.2-0.2,0.4-0.1c0.1,0.1,0.2,0.2,0.1,0.4c-0.4,0.7-1.3,2.1-2.1,2.1C37.4,13.7,38.3,9,38.9,6.2
					z"/>
				<path d="M40.9,11.4c0.1-0.5,0.4-0.9,0.8-1.3c0.1-0.1,0.2-0.1,0.3,0c0.5-0.1,0.9,0.6,1,1.1c0.3,0.1,0.8,0.1,1.4,0
					c0.1,0,0.3,0,0.3,0.2c0,0.1,0,0.3-0.2,0.3c-0.5,0.1-1,0.2-1.5,0.1c0,0.4-0.1,0.8-0.3,1.2C41.9,14.5,40.3,13.4,40.9,11.4z
					 M42.6,11.7c-0.4-0.2-0.7-0.5-0.8-0.8c-1,1.3-0.2,3.3,0.6,1.9C42.5,12.4,42.6,12.1,42.6,11.7z"/>
				<path d="M44.5,13.5c-0.1-2.4,0-4.6,0.2-6.7l-2.3,0.1c-0.1,0-0.3-0.1-0.3-0.3c0-0.1,0.1-0.3,0.3-0.3l2.4-0.1
					c0.1-0.6,0.2-1.2,0.3-1.8c0-0.1,0.2-0.2,0.3-0.2s0.2,0.2,0.2,0.3c-0.1,0.6-0.2,1.1-0.3,1.7l3-0.1c0.2,0,0.3,0.1,0.3,0.3
					c0,0.1-0.1,0.3-0.3,0.3l-3.1,0.1c-0.3,2.1-0.4,4.3-0.2,6.7c0,0.1-0.1,0.3-0.3,0.3h0C44.6,13.8,44.5,13.7,44.5,13.5z"/>
				<path d="M46.8,10.5c0.8-0.7,1.5-0.4,1.6,0.1c0.2,0.8-1,1.5-1.9,1.6c-0.2,1.2,1.1,1.2,1.9,0.7c0.5-0.3,1-0.8,1.5-1.6
					c0.1-0.1,0.2-0.2,0.4-0.1c0.1,0.1,0.2,0.2,0.1,0.4c-1,1.6-2.1,2.1-2.9,2.1C45.4,13.7,45.8,11.5,46.8,10.5z M47.9,10.7
					c0-0.2-0.7-0.1-1.2,0.9C47.4,11.5,48,11,47.9,10.7z"/>
			</g>
			<g class="st3">
				<path class="st4" d="M24.9,15.2c0-0.6,0-1.7,0.2-2.9c-0.6,0.2-0.5,0.2-0.6,0.2c-0.1,0-0.2-0.1-0.3-0.2c0-0.1,0-0.3,0.2-0.3
					c0.3-0.1,0.5-0.2,0.8-0.3c0.3-1.9,0.9-6.3,2.7-5.7c1.1,0.4,1.1,2.4,1.1,4.8l0.6-0.1c0.1,0,0.3,0.1,0.3,0.2
					c0,0.1-0.1,0.3-0.2,0.3l-0.6,0.1c0,1.1,0,2.2,0,3.3c0,0.1-0.1,0.3-0.3,0.3c-0.1,0-0.3-0.1-0.3-0.3c0-1.1,0.1-2.2,0-3.2
					c-0.9,0.1-1.6,0.3-2.8,0.7c-0.2,1.3-0.2,2.4-0.2,3.1c0,0.1-0.1,0.3-0.3,0.3h0C25,15.5,24.9,15.4,24.9,15.2z M28.4,10.9
					c0-1.7-0.1-3-0.3-3.5c-0.1-0.4-0.3-0.7-0.5-0.8c-1.1-0.4-1.8,3.8-1.9,5C26.7,11.2,27.4,11,28.4,10.9z"/>
				<path class="st4" d="M30.1,13.2c0.3-0.4,0.6-0.7,0.9-1c-0.2-0.5-0.4-1.1-0.5-1.8c0-0.1,0-0.3,0.2-0.3c0.1,0,0.3,0.1,0.3,0.2
					c0.1,0.6,0.3,1.1,0.4,1.5c0.4-0.4,0.8-1,1.2-1.9c0.1-0.1,0.2-0.2,0.4-0.1c0.1,0.1,0.2,0.2,0.1,0.4c-0.6,1.1-1,1.7-1.4,2.2
					c1.1,2.1,2.3,0,3.1-1c0.1-0.1,0.3-0.1,0.4,0c0.1,0.1,0.1,0.3,0,0.4c-0.2,0.2-0.6,0.9-1.2,1.4c-1.1,1-2.1,0.9-2.8-0.4
					c-0.3,0.2-0.5,0.5-0.7,0.8c-0.1,0.1-0.3,0.1-0.4,0C30.1,13.4,30,13.3,30.1,13.2z"/>
				<path class="st4" d="M34.7,11.4c0.1-0.5,0.4-0.9,0.8-1.3c0.1-0.1,0.2-0.1,0.3,0c0.5-0.1,0.9,0.6,1,1.1c0.3,0.1,0.8,0.1,1.4,0
					c0.1,0,0.3,0,0.3,0.2c0,0.1,0,0.3-0.2,0.3c-0.5,0.1-1,0.2-1.5,0.1c0,0.4-0.1,0.8-0.3,1.2C35.8,14.5,34.1,13.4,34.7,11.4z
					 M36.5,11.7c-0.4-0.2-0.7-0.5-0.8-0.8c-1,1.3-0.2,3.3,0.6,1.9C36.4,12.4,36.5,12.1,36.5,11.7z"/>
				<path class="st4" d="M38.9,6.2c0-0.1,0.2-0.2,0.3-0.2c0.1,0,0.2,0.2,0.2,0.3c-0.5,2.7-0.8,4.5-0.7,5.5c0,1.1,0.3,1.2,0.5,1.3
					c0.4,0.2,1.2-0.9,1.7-1.8c0.1-0.1,0.2-0.2,0.4-0.1c0.1,0.1,0.2,0.2,0.1,0.4c-0.4,0.7-1.3,2.1-2.1,2.1C37.4,13.7,38.3,9,38.9,6.2
					z"/>
				<path class="st4" d="M40.9,11.4c0.1-0.5,0.4-0.9,0.8-1.3c0.1-0.1,0.2-0.1,0.3,0c0.5-0.1,0.9,0.6,1,1.1c0.3,0.1,0.8,0.1,1.4,0
					c0.1,0,0.3,0,0.3,0.2c0,0.1,0,0.3-0.2,0.3c-0.5,0.1-1,0.2-1.5,0.1c0,0.4-0.1,0.8-0.3,1.2C41.9,14.5,40.3,13.4,40.9,11.4z
					 M42.6,11.7c-0.4-0.2-0.7-0.5-0.8-0.8c-1,1.3-0.2,3.3,0.6,1.9C42.5,12.4,42.6,12.1,42.6,11.7z"/>
				<path class="st4" d="M44.5,13.5c-0.1-2.4,0-4.6,0.2-6.7l-2.3,0.1c-0.1,0-0.3-0.1-0.3-0.3c0-0.1,0.1-0.3,0.3-0.3l2.4-0.1
					c0.1-0.6,0.2-1.2,0.3-1.8c0-0.1,0.2-0.2,0.3-0.2s0.2,0.2,0.2,0.3c-0.1,0.6-0.2,1.1-0.3,1.7l3-0.1c0.2,0,0.3,0.1,0.3,0.3
					c0,0.1-0.1,0.3-0.3,0.3l-3.1,0.1c-0.3,2.1-0.4,4.3-0.2,6.7c0,0.1-0.1,0.3-0.3,0.3h0C44.6,13.8,44.5,13.7,44.5,13.5z"/>
				<path class="st4" d="M46.8,10.5c0.8-0.7,1.5-0.4,1.6,0.1c0.2,0.8-1,1.5-1.9,1.6c-0.2,1.2,1.1,1.2,1.9,0.7c0.5-0.3,1-0.8,1.5-1.6
					c0.1-0.1,0.2-0.2,0.4-0.1c0.1,0.1,0.2,0.2,0.1,0.4c-1,1.6-2.1,2.1-2.9,2.1C45.4,13.7,45.8,11.5,46.8,10.5z M47.9,10.7
					c0-0.2-0.7-0.1-1.2,0.9C47.4,11.5,48,11,47.9,10.7z"/>
			</g>
		</g>
		<g class="st3">
			<path d="M25.9,21.9c-0.3-0.1-0.5-0.2-0.6-0.4l0.2-0.3c0.1,0.1,0.3,0.2,0.5,0.3c0.2,0.1,0.5,0.1,0.7,0.1c0.3,0,0.6-0.1,0.7-0.2
				c0.2-0.1,0.2-0.3,0.2-0.5c0-0.1,0-0.3-0.1-0.4c-0.1-0.1-0.2-0.2-0.3-0.2c-0.1,0-0.3-0.1-0.6-0.2c-0.3-0.1-0.5-0.1-0.7-0.2
				c-0.2-0.1-0.3-0.2-0.4-0.3c-0.1-0.1-0.2-0.3-0.2-0.6c0-0.2,0-0.4,0.1-0.5s0.3-0.3,0.5-0.4c0.2-0.1,0.5-0.1,0.8-0.1
				c0.2,0,0.4,0,0.6,0.1s0.4,0.1,0.5,0.2l-0.1,0.3c-0.2-0.1-0.3-0.2-0.5-0.2c-0.2,0-0.4-0.1-0.5-0.1c-0.3,0-0.6,0.1-0.7,0.2
				c-0.2,0.1-0.2,0.3-0.2,0.5c0,0.1,0,0.3,0.1,0.4c0.1,0.1,0.2,0.2,0.3,0.2c0.1,0,0.3,0.1,0.6,0.2c0.3,0.1,0.5,0.1,0.7,0.2
				c0.2,0.1,0.3,0.2,0.4,0.3c0.1,0.1,0.2,0.3,0.2,0.5c0,0.2,0,0.4-0.1,0.5s-0.3,0.3-0.5,0.4C27.3,21.9,27,22,26.7,22
				C26.5,22,26.2,22,25.9,21.9z"/>
			<path d="M31.2,18.6h-1.3v-0.3h3v0.3h-1.3V22h-0.4L31.2,18.6L31.2,18.6z"/>
			<path d="M35.7,21.8c-0.3-0.2-0.5-0.4-0.7-0.7s-0.3-0.6-0.3-1c0-0.4,0.1-0.7,0.3-1s0.4-0.5,0.7-0.7c0.3-0.2,0.6-0.2,1-0.2
				c0.4,0,0.7,0.1,1,0.2c0.3,0.2,0.5,0.4,0.7,0.7c0.2,0.3,0.3,0.6,0.3,1c0,0.4-0.1,0.7-0.3,1c-0.2,0.3-0.4,0.5-0.7,0.7
				C37.4,22,37,22,36.7,22S36,21.9,35.7,21.8z M37.5,21.5c0.2-0.1,0.4-0.3,0.6-0.6c0.1-0.2,0.2-0.5,0.2-0.8c0-0.3-0.1-0.6-0.2-0.8
				c-0.1-0.2-0.3-0.4-0.6-0.6c-0.2-0.1-0.5-0.2-0.8-0.2c-0.3,0-0.6,0.1-0.8,0.2c-0.2,0.1-0.4,0.3-0.6,0.6c-0.1,0.2-0.2,0.5-0.2,0.8
				c0,0.3,0.1,0.6,0.2,0.8c0.1,0.2,0.3,0.4,0.6,0.6c0.2,0.1,0.5,0.2,0.8,0.2C37,21.7,37.2,21.6,37.5,21.5z"/>
			<path d="M43.6,22l-0.8-1.2c-0.1,0-0.2,0-0.3,0h-1V22h-0.4v-3.7h1.4c0.5,0,0.8,0.1,1.1,0.3c0.3,0.2,0.4,0.5,0.4,0.9
				c0,0.3-0.1,0.5-0.2,0.7c-0.1,0.2-0.4,0.3-0.6,0.4L44,22L43.6,22L43.6,22z M43.3,20.2c0.2-0.2,0.3-0.4,0.3-0.7
				c0-0.3-0.1-0.5-0.3-0.7s-0.5-0.2-0.8-0.2h-1v1.9h1C42.8,20.5,43.1,20.4,43.3,20.2z"/>
			<path d="M49.1,21.6V22h-2.6v-3.7H49v0.3h-2.2v1.3h1.9v0.3h-1.9v1.4L49.1,21.6L49.1,21.6z"/>
		</g>
	</g>
</g>
</svg>
