<?xml version="1.0" encoding="utf-8"?>
<!-- Generator: Adobe Illustrator 26.3.1, SVG Export Plug-In . SVG Version: 6.00 Build 0)  -->
<svg version="1.1" id="Capa_1" xmlns="http://www.w3.org/2000/svg" xmlns:xlink="http://www.w3.org/1999/xlink" x="0px" y="0px"
	 viewBox="0 0 500 500" style="enable-background:new 0 0 500 500;" xml:space="preserve">
<style type="text/css">
	.st0{fill:#FFF5F8;}
	.st1{fill:#231F20;}
	.st2{fill:#F44E7E;}
</style>
<g>
	<g>
		<g>
			<path class="st0" d="M384.46,250.77c1.77-7.95,1.77-15.9,1.77-23.84c0-75.5-61.37-136.88-136.88-136.88
				s-136.88,61.37-136.88,136.88c0,15.9,1.77,31.79,7.95,45.48c0,0,0,63.58,0,97.14s7.95,47.69,25.61,49.45
				c17.66,1.77,23.84-49.45,27.82-47.69c4.42,2.21,107.74,11.92,153.21-1.77c0,0,1.77,49.45,31.79,43.71
				C388.43,409.28,384.46,250.77,384.46,250.77z"/>
			<path class="st1" d="M148.67,426.94h-2.21c-27.38-3.97-31.35-29.58-31.35-55.63c0-29.58,0-86.98,0-94.93
				c-6.18-15.9-7.95-31.79-7.95-47.69c0-79.48,63.58-142.62,142.62-142.62S392.4,149.65,392.4,228.69c0,7.95,0,15.9-1.77,23.84
				c0,5.74,1.77,43.71-1.77,81.24c-4.42,75.5-18.1,89.19-28.26,91.4c-7.95,1.77-15.9,0-21.64-3.97
				c-11.92-10.16-15.9-27.82-18.1-37.97c-43.71,9.71-124.96,1.77-144.83,0c0,1.77-1.77,5.74-1.77,7.95
				C170.31,403.1,164.57,426.94,148.67,426.94z M249.79,97.99c-71.53,0-130.7,57.4-130.7,130.7c0,15.9,1.77,29.58,7.95,43.71l0,0
				v1.77c0,0,0,63.58,0,97.14s9.71,41.95,21.64,43.71c5.74,0,13.69-21.64,15.9-29.58c3.97-11.92,5.74-19.87,11.92-17.66
				c6.18,2.21,105.09,11.92,148.8-1.77l7.95-1.77v7.95c0,7.95,3.97,27.82,13.69,35.76c3.97,1.32,5.74,3.09,11.92,1.32
				c1.77,0,13.69-5.74,17.66-79.48c1.77-39.74,1.77-79.48,1.77-79.48l0,0l0,0c1.77-7.95,1.77-13.69,1.77-21.64
				C380.48,155.39,320.87,97.99,249.79,97.99z"/>
		</g>
		<g>
			<path class="st2" d="M348.69,131.55c15.9,15.9,25.61,33.56,33.56,55.63c0,0,37.53,5.74,55.63-1.77
				c18.1-10.16,11.92-27.82-3.97-23.84c-17.66,5.74-35.76,3.97-35.76,1.77c-1.77-1.77,51.66-27.82,57.84-53.43
				c5.74-25.61-11.92-29.58-35.76-7.95c-21.64,21.64-39.74,25.61-41.5,27.82c7.95-7.95,15.9-35.76,9.71-45.48
				s-17.66-3.97-21.64,13.69C364.59,115.65,348.69,131.55,348.69,131.55z"/>
			<path class="st1" d="M410.06,195.13c-13.69,0-25.61-1.77-29.58-1.77c-1.77,0-3.97-1.77-3.97-3.97
				c-5.74-19.87-17.66-37.97-31.79-53.87c-1.77-1.77-1.77-5.74,0-7.95l0,0c0,0,13.69-15.9,17.66-29.58
				c1.77-13.69,9.71-21.64,17.66-23.84c5.74,0,11.92,1.77,13.69,7.95c6.62,7.95,4.42,23.84,0.44,35.76
				c6.18-3.97,14.13-10.16,22.08-17.66c15.9-13.69,29.58-19.87,39.74-13.69c3.97,1.77,11.92,9.71,5.74,27.82
				c-5.74,19.43-31.79,35.32-47.69,47.24c5.74,0,11.92-1.77,17.66-3.97c11.92-3.97,19.87,1.77,21.64,7.95
				c3.97,7.95,0,19.87-11.92,25.61C433.91,195.13,421.99,195.13,410.06,195.13z M388.43,181.44c11.92,1.77,35.76,3.97,47.69-2.21
				c5.74-3.97,7.95-7.95,7.95-9.71c0-1.77-3.97-1.77-7.95,0c-11.92,3.97-39.74,7.95-43.71-1.77c-3.97-6.18,1.77-8.39,11.92-16.34
				c13.69-7.95,41.5-27.82,45.48-41.5c1.77-5.74,1.77-11.92,0-13.69c-1.77-1.77-11.92,0-25.61,11.92
				c-23.84,23.4-41.95,27.38-43.71,27.38s-5.74,0-5.74-1.77c-1.77-1.77,0-5.74,0-7.95c7.95-5.74,13.69-31.79,9.71-37.53l-2.21-2.21
				c-1.77,0-5.74,3.97-7.95,13.69c-1.77,14.13-11.48,26.05-15.45,31.79C370.77,145.68,380.48,163.34,388.43,181.44z"/>
		</g>
		<g>
			<path class="st2" d="M150.44,131.55c-15.45,15.9-27.38,34-33.56,55.63c0,0-37.53,5.74-55.63-1.77
				c-17.66-10.16-11.48-27.82,3.97-23.84c17.66,5.74,35.76,3.97,37.53,1.77c2.21-1.77-51.22-27.82-56.96-53.43
				c-7.95-23.84,9.71-29.58,33.56-5.74c21.64,21.64,39.74,25.61,41.5,27.82c-7.95-9.71-17.66-35.76-9.71-47.69
				s17.66-3.97,21.64,13.69C134.98,115.65,150.44,131.55,150.44,131.55z"/>
			<path class="st1" d="M89.06,195.13c-9.71,0-21.64-1.77-29.58-5.74c-13.69-5.74-17.66-17.66-13.69-23.84
				c1.77-7.95,9.71-11.92,21.64-10.16c7.95,2.21,13.69,3.97,19.87,3.97c-18.1-11.92-43.71-27.82-49.45-47.69
				c-3.97-17.66,3.97-23.4,5.74-27.38c9.71-5.74,23.84,0,39.74,13.69c7.95,7.95,15.9,13.69,21.64,17.66
				c-3.97-11.92-5.74-25.61,0-35.76c3.97-3.53,10.16-7.51,15.9-5.74c7.95,0,13.69,9.71,17.66,21.64c1.77,15.9,15.9,31.79,15.9,31.79
				c1.77,1.77,1.77,5.74,0,7.95c-13.69,15.9-25.61,34-31.35,53.43c0,1.77-1.77,3.97-3.97,3.97
				C115.12,192.92,103.19,195.13,89.06,195.13z M59.48,167.31c-1.77,0-3.97,0-3.97,1.77c0,1.77,0,7.95,7.95,9.71
				c11.92,5.74,35.76,3.97,49.45,1.77c5.74-17.66,15.9-35.76,29.58-49.45c-3.53-5.3-13.69-19.43-15.45-30.91
				c-2.21-10.16-7.95-14.13-7.95-14.13s-1.77,0-1.77,1.77c-5.74,7.95,0,31.79,7.95,37.53c1.77,1.77,1.77,5.74,0,7.95
				c0,1.77-3.97,3.97-5.74,1.77c0,0-19.87-5.74-43.71-27.82C63.45,96.23,53.74,94.02,51.53,96.23c-1.77,1.77-1.77,5.74,0,13.69
				c1.77,13.69,29.58,33.56,43.71,41.5c11.92,7.95,15.9,9.71,11.92,15.9c-3.97,7.95-31.79,3.97-43.71,0
				C63.45,167.31,61.25,167.31,59.48,167.31z"/>
		</g>
		<g>
			<g>
				<path class="st1" d="M210.05,192.92c0-7.95-5.74-15.9-13.69-17.66c-7.95,0-15.9,5.74-17.66,13.69c0,7.95,5.74,15.9,13.69,17.66
					C202.1,208.82,208.28,203.08,210.05,192.92z"/>
				<path class="st1" d="M194.15,211.03C194.15,211.03,192.39,211.03,194.15,211.03c-9.71,0-17.66-9.71-17.66-17.66
					c0-9.71,9.71-15.9,17.66-15.9c9.71,0,15.9,9.71,15.9,17.66l0,0c0,3.97-1.77,7.95-5.74,11.92
					C202.1,208.82,198.13,211.03,194.15,211.03z M194.15,179.24c-7.95,0-13.69,5.74-13.69,13.69s5.74,15.9,13.69,15.9
					c3.97,0,7.95,0,9.71-3.97c2.21-3.97,4.42-5.74,6.18-9.71C208.28,185.42,202.1,179.24,194.15,179.24L194.15,179.24z"/>
			</g>
			<g>
				<path class="st1" d="M184.44,215c-9.71,0-17.66-3.97-17.66-3.97c-1.77,0-1.77-3.97-1.77-3.97c1.32-3.97,3.53-3.97,5.3-3.97l0,0
					c0,0,13.69,7.95,25.61,0c1.77-1.77,3.97,0,5.74,0c1.77,1.77,0,3.97,0,5.74C196.36,212.79,190.18,215,184.44,215z"/>
			</g>
		</g>
		<g>
			<g>
				<path class="st1" d="M291.29,192.92c0-7.95,5.74-15.9,13.69-17.66c7.95-1.77,15.9,5.74,17.66,13.69
					c0,7.95-5.74,15.9-13.69,17.66C299.24,208.82,291.29,203.08,291.29,192.92z"/>
				<path class="st1" d="M304.98,211.03c-3.97,0-7.95-1.77-11.92-3.97c-3.53-2.21-5.74-7.95-5.74-11.92c0-3.97,1.77-9.71,3.97-11.92
					c2.21-3.97,7.95-5.74,11.92-5.74c9.71,0,17.66,5.74,17.66,15.9S316.9,208.82,304.98,211.03
					C307.19,211.03,307.19,211.03,304.98,211.03z M307.19,179.24C304.98,179.24,304.98,179.24,307.19,179.24
					c-5.74,0-7.95,1.77-11.92,5.74c-1.77,2.21-3.97,6.18-3.97,10.16l0,0c0,3.97,1.77,7.95,5.74,9.71c2.21,2.21,6.18,3.97,10.16,3.97
					c7.95,0,13.69-7.95,13.69-15.9C320.87,183.21,312.93,179.24,307.19,179.24z"/>
			</g>
			<g>
				<path class="st1" d="M315.13,215c-5.74,0-11.92-1.77-15.9-5.74c-1.77-1.77-1.77-3.97,0-5.74c1.77-1.77,3.97-1.77,5.74,0
					c11.92,7.95,25.61,0,25.61,0c1.77,0,3.97,0,3.97,1.77c0,1.77,0,3.97-1.77,3.97C332.8,211.03,324.85,215,315.13,215z"/>
			</g>
		</g>
		<g>
			<path class="st1" d="M247.58,215c-7.95,0-13.69-1.77-17.66-5.74c-2.21-2.21-3.97-6.18-2.21-8.39c1.77-1.77,5.74-3.97,7.95-1.77
				c0,0,9.71,5.74,17.66,0c1.77-1.77,5.74-1.77,7.95,0c1.77,1.77,1.77,5.74,0,7.95C257.73,212.79,253.76,215,247.58,215z"/>
		</g>
		<g>
			<path class="st1" d="M176.49,379.25C174.28,379.25,174.28,379.25,176.49,379.25c-11.92-1.77-23.84-13.69-23.84-13.69
				c-1.77-1.77-1.77-5.74,0-7.95c1.77-1.77,5.74-1.77,7.95,0c1.77,1.77,9.71,9.71,15.9,9.71c3.97,0,5.74,3.97,5.74,5.74
				C180.46,377.49,178.26,379.25,176.49,379.25z"/>
		</g>
		<g>
			<path class="st1" d="M327.06,377.49c-1.77,0-5.74-1.77-5.74-3.97c0-3.97,0-5.74,3.97-7.95c11.92-3.97,19.87-9.71,19.87-9.71
				c1.77-1.77,5.74-1.77,7.95,0c1.77,1.77,1.77,5.74,0,7.95C352.66,365.57,344.72,373.51,327.06,377.49
				C328.82,377.49,328.82,377.49,327.06,377.49z"/>
		</g>
	</g>
</g>
</svg>
