<?xml version="1.0" encoding="utf-8"?>
<!-- Generator: Adobe Illustrator 26.3.1, SVG Export Plug-In . SVG Version: 6.00 Build 0)  -->
<svg version="1.1" id="Modo_de_aislamiento" xmlns="http://www.w3.org/2000/svg" xmlns:xlink="http://www.w3.org/1999/xlink"
	 x="0px" y="0px" viewBox="0 0 362.9 362.9" style="enable-background:new 0 0 362.9 362.9;" xml:space="preserve">
<style type="text/css">
	.st0{fill:#FFF5F8;}
	.st1{fill:#231F20;}
	.st2{fill:#F44E7E;}
</style>
<g>
	<g>
		<g>
			<g>
				<path class="st0" d="M290.6,182c1.1-6,1.6-12.1,1.6-18.5c0-61.3-49.7-110.9-110.9-110.9s-111,49.7-111,111
					c0,13.2,2.4,26,6.7,37.9c0,0-0.5,51.7,0,78.4c0.5,26.8,6.5,38.7,21.5,40.7c14.9,2,18.8-39.6,22.8-38.7s87.2,9.9,123.8-0.9
					c0,0,2.3,40.7,26.1,35.6C295,311.4,290.6,182,290.6,182z"/>
				<path class="st1" d="M99.4,325.4c-0.5,0-1.2,0-1.7-0.1c-21.9-2.9-25.2-24.7-25.7-45.4c-0.5-24.5-0.1-70.6,0-77.7
					c-4.4-12.4-6.5-25.3-6.5-38.7c0-63.8,52-115.8,115.8-115.8S297,99.6,297,163.5c0,6.1-0.5,12.5-1.6,18.8
					c0.1,4.3,0.9,34.7-0.9,65.3c-3.6,61.8-14,71.8-22.7,73.6c-6.4,1.3-12.4,0-17.2-3.7c-9.5-7.3-12.9-22.1-14.1-30.7
					c-35.9,8-101.3,2-117.3,0c-0.7,1.7-1.3,4.4-2,6.7C117.6,306.5,112.2,325.4,99.4,325.4z M181.2,57.6c-58.4,0-106,47.6-106,106
					c0,12.4,2.1,24.5,6.3,36.1l0.3,0.8v0.9c0,0.5-0.5,51.8,0,78.2c0.7,27.9,7.3,34.5,17.1,35.9c5.5,0.8,10.7-16.9,12.8-24.5
					c2.7-9.3,4.5-15.5,10.5-14c4.1,0.8,85.7,9.6,121.2-0.9l6-1.7l0.4,6.3c0.4,6.1,3.1,23.2,10.9,29.3c2.7,2,5.6,2.7,9.2,1.9
					c1.2-0.3,11.2-4,14.8-64.4c1.9-32.4,0.9-64.6,0.9-64.9V182l0.1-0.5c0.9-5.9,1.5-11.9,1.5-17.6
					C287.2,105.1,239.7,57.6,181.2,57.6z"/>
			</g>
			<g>
				<path class="st2" d="M262.4,84.8c12.3,12.7,21.7,28.1,27.3,45.4c0,0,30.9,5.5,44.9-1.9c14-7.3,10.1-22.7-3.6-18.4
					c-13.9,4.1-28.5,3.3-29.7,1.2c-1.2-2.1,42-22.9,47.6-43.2s-10.4-24.3-29.3-6.1c-18.3,17.6-32.1,21.7-33.1,22
					c6.5-6.4,13.5-28.5,8-37.2c-5.3-8.8-14.4-2.7-17.5,11.1C274.4,71.5,262.4,84.8,262.4,84.8z"/>
				<path class="st1" d="M312.5,137.2c-11.3,0-21.7-1.7-23.6-2.1c-1.7-0.3-3.3-1.6-3.9-3.3c-5.3-16.1-14.4-31.2-26.3-43.4
					c-1.7-1.9-1.9-4.8-0.1-6.7l0,0c0.1-0.1,11.1-12.7,13.7-24.9c2.3-10.5,7.9-17.7,14.5-18.9c4.7-0.8,9.1,1.5,12,6.3
					c4.3,7.1,2.9,18.8-0.5,28.5c4.9-3.2,11.1-7.7,17.9-14.3c12.3-11.7,24.3-15.9,32.3-11.1c2.9,1.7,9.3,7.3,5.2,22.1
					c-4.3,15.3-25.3,29.6-39.3,38.5c4.4-0.3,9.9-1.1,15.2-2.7c9.3-2.8,15.7,1.2,17.9,6.5c2.7,6.3-0.1,15.6-10.5,21.1
					C330.5,136.1,321.2,137.2,312.5,137.2z M293.6,125.9c9.9,1.5,29.7,3.1,38.9-1.9c5.3-2.8,6.7-6.7,6-8.5c-0.5-1.5-2.9-1.7-5.9-0.8
					c-8.8,2.7-31.5,6.1-35.5-1.1c-2.5-4.7,1.1-7.1,10-12.7c10.9-7.1,33.7-21.7,37.2-34.3c1.5-5.5,1.2-9.7-0.8-10.9
					c-2.4-1.5-10-0.1-20.3,9.7c-19.6,18.8-34.5,23.1-35.2,23.2c-2.1,0.5-4.5-0.4-5.6-2.4c-1.1-2-0.8-4.4,0.8-6
					c5.7-5.6,10.9-25.1,7.3-31.1c-0.5-0.8-1.3-1.7-1.9-1.7c-1.3,0.3-4.8,3.3-6.5,11.2c-2.3,10.5-9.2,20.8-13.2,25.9
					C279.7,96.7,288.1,110.7,293.6,125.9z"/>
			</g>
			<g>
				<path class="st2" d="M100.6,84.8C88.3,97.5,78.9,113,73.3,130.3c0,0-30.9,5.5-44.9-1.9c-14-7.3-10.1-22.7,3.6-18.4
					c13.7,4.1,28.5,3.3,29.7,1.2c1.2-2.1-42-22.9-47.6-43.2s10.4-24.3,29.3-6.1c18.3,17.6,32.3,21.7,33.1,22
					c-6.5-6.4-13.5-28.5-8-37.2c5.3-8.8,14.4-2.7,17.5,11.1C88.7,71.5,100.6,84.8,100.6,84.8z"/>
				<path class="st1" d="M50.5,137.2c-8.7,0-18-1.1-24.5-4.5c-10.3-5.5-13.1-14.7-10.5-21.1c2.1-5.3,8.5-9.5,17.9-6.5
					c5.3,1.6,10.7,2.4,15.2,2.7c-14-8.9-35.1-23.2-39.3-38.5c-4-14.7,2.3-20.4,5.2-22.1c8-4.8,20-0.5,32.3,11.1
					c6.8,6.5,12.9,11.1,17.9,14.3C61,62.7,59.5,51,63.9,43.9c2.9-4.8,7.3-7.1,12-6.3c6.7,1.1,12.3,8.4,14.5,18.9
					c2.7,12.4,13.6,24.8,13.7,24.9c1.7,1.9,1.6,4.9-0.1,6.7c-11.9,12.3-20.9,27.3-26.3,43.4c-0.5,1.7-2,2.9-3.9,3.3
					C72.2,135.5,61.9,137.2,50.5,137.2z M27.5,114.2c-1.5,0-2.5,0.5-2.9,1.3c-0.8,1.9,0.7,5.6,6,8.5c9.2,4.9,29.1,3.3,38.9,1.9
					c5.5-15.1,13.9-29.2,24.5-41.2c-4-5.2-10.9-15.3-13.2-25.9c-1.7-7.9-5.2-11.1-6.5-11.3c-0.5-0.1-1.3,0.8-1.9,1.7
					c-3.7,6,1.6,25.5,7.3,31.1c1.6,1.6,2,4,0.8,6c-1.1,2-3.5,2.9-5.6,2.4c-0.7-0.1-15.6-4.4-35.2-23.2C29.7,55.6,22,54.2,19.6,55.6
					c-2,1.2-2.3,5.5-0.8,10.9c3.5,12.5,26.3,27.2,37.2,34.3c8.9,5.7,12.5,8,10,12.8c-4,7.2-26.7,3.7-35.5,1.1
					C29.4,114.3,28.3,114.2,27.5,114.2z"/>
			</g>
			<g>
				<g>
					<path class="st1" d="M148.7,135.9c0.5-7.1-4.8-13.2-11.9-13.9c-7.1-0.5-13.2,4.8-13.9,11.9c-0.5,7.1,4.8,13.2,11.9,13.9
						C142,148.3,148.2,142.9,148.7,135.9z"/>
					<path class="st1" d="M135.9,148.8c-0.4,0-0.7,0-1.1,0c-7.6-0.5-13.3-7.2-12.8-14.8c0.5-7.6,7.3-13.3,14.8-12.8
						c7.6,0.5,13.3,7.2,12.8,14.8l0,0c-0.3,3.7-2,7.1-4.8,9.5C142.4,147.6,139.2,148.8,135.9,148.8z M135.9,123.1
						c-6.1,0-11.3,4.8-11.9,11.1c-0.5,6.5,4.4,12.3,10.9,12.8c3.2,0.3,6.3-0.8,8.7-2.8c2.4-2,3.9-4.9,4.1-8.1
						c0.5-6.5-4.4-12.3-10.9-12.8C136.4,123.1,136.2,123.1,135.9,123.1z"/>
				</g>
				<g>
					<path class="st1" d="M128.4,152.3c-7.7,0-13.9-3.2-14.3-3.5c-1.5-0.8-2-2.5-1.2-4c0.8-1.5,2.5-2,4-1.2l0,0
						c0.1,0.1,12,6.3,21.6-0.3c1.3-0.9,3.2-0.5,4.1,0.8c0.9,1.3,0.5,3.2-0.8,4.1C137.4,151.3,132.7,152.3,128.4,152.3z"/>
				</g>
			</g>
			<g>
				<g>
					<path class="st1" d="M214.5,135.9c-0.5-7.1,4.8-13.2,11.9-13.9c7.1-0.5,13.2,4.8,13.9,11.9c0.5,7.1-4.8,13.2-11.9,13.9
						C221.3,148.3,215.1,142.9,214.5,135.9z"/>
					<path class="st1" d="M227.5,148.8c-3.3,0-6.5-1.2-9.1-3.3c-2.8-2.4-4.5-5.7-4.8-9.5c-0.3-3.7,0.9-7.3,3.3-10.1
						c2.4-2.8,5.7-4.5,9.5-4.8c7.6-0.5,14.3,5.2,14.8,12.8c0.5,7.6-5.2,14.3-12.8,14.8C228.1,148.8,227.7,148.8,227.5,148.8z
						 M227.5,123.1c-0.3,0-0.5,0-0.9,0c-3.2,0.3-6,1.7-8.1,4.1c-2.1,2.4-3.1,5.5-2.8,8.7l0,0c0.3,3.2,1.7,6,4.1,8.1
						c2.4,2.1,5.5,3.1,8.7,2.8c6.5-0.5,11.5-6.1,10.9-12.8C238.8,127.7,233.6,123.1,227.5,123.1z"/>
				</g>
				<g>
					<path class="st1" d="M234.9,152.3c-4.3,0-9.1-1.1-13.5-4.1c-1.3-0.9-1.7-2.8-0.8-4.1c0.9-1.3,2.8-1.7,4.1-0.8
						c9.6,6.5,21.5,0.3,21.6,0.3c1.5-0.8,3.2-0.3,4,1.2c0.8,1.5,0.3,3.2-1.2,4C248.8,149.1,242.7,152.3,234.9,152.3z"/>
				</g>
			</g>
			<g>
				<path class="st1" d="M179.8,152.8c-5.7,0-11.1-2.4-14-4.4c-2.3-1.6-2.8-4.7-1.3-6.9c1.6-2.3,4.7-2.8,6.8-1.3
					c0.4,0.3,8.5,5.6,14.4,0.4c2-1.9,5.2-1.6,6.9,0.4c1.9,2,1.6,5.2-0.4,6.9C188.4,151.6,184,152.8,179.8,152.8z"/>
			</g>
			<g>
				<path class="st1" d="M121.1,286.8c-0.3,0-0.4,0-0.7,0c-9.7-1.2-18.1-10.8-18.9-12c-1.7-2.1-1.5-5.2,0.5-6.9
					c2.1-1.7,5.2-1.5,6.9,0.5c1.7,2,7.7,7.9,12.7,8.5c2.7,0.4,4.7,2.8,4.3,5.6C125.6,284.9,123.5,286.8,121.1,286.8z"/>
			</g>
			<g>
				<path class="st1" d="M244.9,285.7c-2.1,0-4.1-1.3-4.8-3.5c-0.8-2.7,0.7-5.3,3.3-6.1c9.6-2.9,15.6-8.1,15.7-8.3
					c2-1.9,5.2-1.6,6.9,0.4c1.9,2,1.6,5.2-0.4,6.9c-0.3,0.3-7.6,6.7-19.5,10.3C245.9,285.6,245.3,285.7,244.9,285.7z"/>
			</g>
		</g>
	</g>
</g>
</svg>
