<?xml version="1.0" encoding="utf-8"?>
<!-- Generator: Adobe Illustrator 26.3.1, SVG Export Plug-In . SVG Version: 6.00 Build 0)  -->
<svg version="1.1" id="Capa_1" xmlns="http://www.w3.org/2000/svg" xmlns:xlink="http://www.w3.org/1999/xlink" x="0px" y="0px"
	 viewBox="0 0 370 370" style="enable-background:new 0 0 370 370;" xml:space="preserve">
<style type="text/css">
	.st0{fill:#FFFFFF;}
</style>
<g id="bg">
</g>
<g id="icon">
	<path class="st0" d="M231.1,64.6c-38.1-38-100-38-138,0c-38,38.1-38,100,0,138c33.9,33.9,86.9,37.6,124.9,11l67.8,67.8
		c6.6,6.6,17.4,6.6,24,0c6.6-6.6,6.6-17.4,0-24l-67.8-67.8C268.7,151.4,265,98.5,231.1,64.6z M215.1,186.5
		c-29.2,29.2-76.7,29.2-105.9,0c-29.2-29.2-29.2-76.7,0-105.9c29.2-29.2,76.7-29.2,105.9,0C244.2,109.8,244.2,157.3,215.1,186.5z"/>
</g>
</svg>
